<?xml version="1.0" encoding="UTF-8" standalone="no"?>
<!-- Created with Inkscape (http://www.inkscape.org/) -->

<svg
   xmlns:dc="http://purl.org/dc/elements/1.1/"
   xmlns:cc="http://creativecommons.org/ns#"
   xmlns:rdf="http://www.w3.org/1999/02/22-rdf-syntax-ns#"
   xmlns:svg="http://www.w3.org/2000/svg"
   xmlns="http://www.w3.org/2000/svg"
   xmlns:sodipodi="http://sodipodi.sourceforge.net/DTD/sodipodi-0.dtd"
   xmlns:inkscape="http://www.inkscape.org/namespaces/inkscape"
   id="svg2"
   version="1.1"
   inkscape:version="0.91 r13725"
   width="2852"
   height="2852"
   viewBox="0 0 2852 2852"
   sodipodi:docname="fff.svg">
  <metadata
     id="metadata8">
    <rdf:RDF>
      <cc:Work
         rdf:about="">
        <dc:format>image/svg+xml</dc:format>
        <dc:type
           rdf:resource="http://purl.org/dc/dcmitype/StillImage" />
        <dc:title></dc:title>
      </cc:Work>
    </rdf:RDF>
  </metadata>
  <defs
     id="defs6">
    <clipPath
       clipPathUnits="userSpaceOnUse"
       id="clipPath4140">
      <path
         style="fill:none;fill-rule:evenodd;stroke:#000000;stroke-width:1px;stroke-linecap:butt;stroke-linejoin:miter;stroke-opacity:1"
         d="M 9.0635593,1709.9915 C 474.32627,2299.1229 474.32627,2305.1653 474.32627,2305.1653 l -114.80508,126.8898 27.19067,241.6949 c 0,0 39.27543,151.0593 190.33475,141.9958 151.05932,-9.0636 154.08051,-9.0636 154.08051,-9.0636 l 184.29237,-274.928 81.57204,24.1695 114.80507,132.9322 63.4449,-151.0593 -72.5084,-157.1017 c 0,0 -57.4026,-120.8474 12.0847,-6.0424 69.4873,114.8051 72.5085,114.8051 72.5085,114.8051 0,0 -120.8475,151.0593 -63.4449,244.7161 57.4025,93.6568 27.1906,102.7204 60.4237,93.6568 33.233,-9.0636 33.233,-9.0636 33.233,-9.0636 l 120.8475,-66.4661 c 0,0 -102.7203,-30.2118 30.2119,-90.6355 132.9322,-60.4238 132.9322,-60.4238 132.9322,-60.4238 l 90.6356,117.8263 78.5508,27.1907 60.4237,-45.3178 -60.4237,-166.1653 -181.2712,-441.0932 c 0,0 -178.25,166.1653 -30.2118,-81.572 148.0381,-247.7373 148.0381,-244.7161 148.0381,-244.7161 l 444.1144,-655.5975 90.6356,-145.01694 190.3347,571.00424 c 0,0 -96.6779,126.8898 -84.5932,187.3136 12.0848,60.4237 -27.1907,75.5296 12.0848,60.4237 39.2754,-15.1059 39.2754,-18.1271 39.2754,-18.1271 0,0 30.2118,-181.2712 69.4873,-99.6992 39.2754,81.572 -51.3602,135.9534 39.2754,81.572 90.6356,-54.3813 90.6356,-54.3813 90.6356,-54.3813 0,0 -54.3814,96.678 15.1059,60.4237 69.4873,-36.2542 18.1271,-36.2542 69.4873,-36.2542 51.3602,0 54.3814,0 54.3814,0 l 66.4661,-129.911 0,-163.1441 -69.4873,-108.7627 c 0,0 15.1059,332.3305 -39.2754,-148.0381 -54.3814,-480.36869 -54.3814,-480.36869 -54.3814,-480.36869 0,0 63.4449,-277.94916 -33.2331,-368.58475 -96.6779,-90.63559 -96.6779,-87.61441 -96.6779,-87.61441 l -27.1907,72.50848 -27.1907,-18.12712 0,-220.546611 c 0,0 -3.0212,-72.5084749 -36.2542,-24.169492 -33.2331,48.338983 -21.1483,-108.762712 -36.2542,48.338983 -15.106,157.1017 -15.106,160.12288 -15.106,160.12288 l -45.3178,0 -27.1907,72.50848 L 2123.8941,78.550845 2030.2373,45.317794 2102.7458,356.5 c 0,0 12.0847,-33.23305 -33.2331,-66.4661 -45.3178,-33.23306 -12.0847,18.12711 -45.3178,-33.23306 -33.233,-51.36016 -12.0847,-51.36016 -33.233,-51.36016 -21.1483,0 -24.1695,0 -24.1695,0 l -36.2543,36.25423 c 0,0 -33.233,-21.1483 -24.1695,33.23305 9.0636,54.38136 9.0636,54.38136 9.0636,54.38136 l 3.0212,21.1483 -794.572,800.61438 c 0,0 392.7542,842.911 -3.0212,9.0636 C 725.08475,326.28813 561.94068,-3.0211895 561.94068,-3.0211895 L 0,0 12.084746,978.8644 477.34746,1670.7161 377.64831,1749.2669 -9.0635593,1232.6441 Z"
         id="path4142"
         inkscape:connector-curvature="0" />
    </clipPath>
    <clipPath
       clipPathUnits="userSpaceOnUse"
       id="clipPath4155">
      <rect
         style="fill:#87aade;fill-opacity:1;stroke:#87aade;stroke-width:2;stroke-linecap:round;stroke-linejoin:miter;stroke-miterlimit:4;stroke-dasharray:none;stroke-dashoffset:0;stroke-opacity:1"
         id="rect4157"
         width="5679.8306"
         height="3498.5339"
         x="500.17786"
         y="-6292.1807"
         transform="matrix(0.57626908,0.81726003,-0.81726003,0.57626908,0,0)" />
    </clipPath>
    <clipPath
       clipPathUnits="userSpaceOnUse"
       id="clipPath4159">
      <rect
         style="fill:#87aade;fill-opacity:1;stroke:#87aade;stroke-width:2;stroke-linecap:round;stroke-linejoin:miter;stroke-miterlimit:4;stroke-dasharray:none;stroke-dashoffset:0;stroke-opacity:1"
         id="rect4161"
         width="5679.8306"
         height="3498.5339"
         x="500.17786"
         y="-6292.1807"
         transform="matrix(0.57626908,0.81726003,-0.81726003,0.57626908,0,0)" />
    </clipPath>
    <clipPath
       clipPathUnits="userSpaceOnUse"
       id="clipPath4163">
      <rect
         style="fill:#87aade;fill-opacity:1;stroke:#87aade;stroke-width:2;stroke-linecap:round;stroke-linejoin:miter;stroke-miterlimit:4;stroke-dasharray:none;stroke-dashoffset:0;stroke-opacity:1"
         id="rect4165"
         width="5679.8306"
         height="3498.5339"
         x="500.17786"
         y="-6292.1807"
         transform="matrix(0.57626908,0.81726003,-0.81726003,0.57626908,0,0)" />
    </clipPath>
    <clipPath
       clipPathUnits="userSpaceOnUse"
       id="clipPath4177">
      <rect
         style="fill:#87aade;fill-opacity:1;stroke:#87aade;stroke-width:2;stroke-linecap:round;stroke-linejoin:round;stroke-miterlimit:4;stroke-dasharray:none;stroke-dashoffset:0;stroke-opacity:1"
         id="rect4179"
         width="7565.0508"
         height="6616.3984"
         x="-181.27118"
         y="-1625.3983" />
    </clipPath>
    <clipPath
       clipPathUnits="userSpaceOnUse"
       id="clipPath4181">
      <rect
         style="fill:#87aade;fill-opacity:1;stroke:#87aade;stroke-width:2;stroke-linecap:round;stroke-linejoin:round;stroke-miterlimit:4;stroke-dasharray:none;stroke-dashoffset:0;stroke-opacity:1"
         id="rect4183"
         width="7565.0508"
         height="6616.3984"
         x="-181.27118"
         y="-1625.3983" />
    </clipPath>
    <clipPath
       clipPathUnits="userSpaceOnUse"
       id="clipPath4185">
      <rect
         style="fill:#87aade;fill-opacity:1;stroke:#87aade;stroke-width:2;stroke-linecap:round;stroke-linejoin:round;stroke-miterlimit:4;stroke-dasharray:none;stroke-dashoffset:0;stroke-opacity:1"
         id="rect4187"
         width="7565.0508"
         height="6616.3984"
         x="-181.27118"
         y="-1625.3983" />
    </clipPath>
  </defs>
  <sodipodi:namedview
     pagecolor="#ffffff"
     bordercolor="#666666"
     borderopacity="1"
     objecttolerance="10"
     gridtolerance="10"
     guidetolerance="10"
     inkscape:pageopacity="0"
     inkscape:pageshadow="2"
     inkscape:window-width="3102"
     inkscape:window-height="1764"
     id="namedview4"
     showgrid="false"
     inkscape:zoom="0.1654979"
     inkscape:cx="4689.0063"
     inkscape:cy="1360.0967"
     inkscape:window-x="98"
     inkscape:window-y="36"
     inkscape:window-maximized="1"
     inkscape:current-layer="svg2" />
  <path
     style="fill:#87aade;fill-opacity:1;fill-rule:evenodd;stroke:#000000;stroke-width:1px;stroke-linecap:round;stroke-linejoin:round;stroke-opacity:1"
     d="M 1081.5847,2719.0678 3027.2288,217.52543 3510.6186,235.65255 2018.1525,2731.1525 Z"
     id="path4169"
     inkscape:connector-curvature="0"
     clip-path="url(#clipPath4185)"
     transform="matrix(0.8433172,0,0,1.0000325,495.71304,-12.132641)" />
  <path
     style="fill:#87aade;fill-opacity:1;fill-rule:evenodd;stroke:#000000;stroke-width:1px;stroke-linecap:round;stroke-linejoin:round;stroke-opacity:1"
     d="m 3015.1441,223.5678 561.9406,1486.4237 308.161,12.0847 -350.4576,-1480.38128 z"
     id="path4171"
     inkscape:connector-curvature="0"
     clip-path="url(#clipPath4181)"
     transform="matrix(0.83757687,-0.068502,0.08151828,0.99672763,457.87223,233.40349)" />
  <path
     style="fill:#87aade;fill-opacity:1;fill-rule:evenodd;stroke:#000000;stroke-width:1px;stroke-linecap:round;stroke-linejoin:round;stroke-opacity:1"
     d="m 827.8051,-12.084739 1196.3898,2731.152539 -960.7373,0 L -682.7881,1.0575674e-5 Z"
     id="path4173"
     inkscape:connector-curvature="0"
     clip-path="url(#clipPath4177)"
     transform="translate(187.31356,18.127119)" />
</svg>
